<svg xmlns="http://www.w3.org/2000/svg" xmlns:xlink="http://www.w3.org/1999/xlink" xmlns:lucid="lucid" width="1486" height="1560"><g transform="translate(-100 0)" lucid:page-tab-id="0_0"><path d="M1320 26a6 6 0 0 1 6-6h148a6 6 0 0 1 6 6v108a6 6 0 0 1-6 6h-148a6 6 0 0 1-6-6z" stroke="#1071e5" fill="#cfe4ff"/><use xlink:href="#a" transform="matrix(1,0,0,1,1332,32) translate(24.03086419753088 33.222222222222214)"/><use xlink:href="#b" transform="matrix(1,0,0,1,1332,32) translate(19.78086419753088 78.55555555555554)"/><path d="M740 286a6 6 0 0 1 6-6h228a6 6 0 0 1 6 6v128a6 6 0 0 1-6 6H746a6 6 0 0 1-6-6z" stroke="#6db1ff" stroke-width="3" fill="#cfe4ff"/><use xlink:href="#c" transform="matrix(1,0,0,1,752,292) translate(45.12962962962963 50.40277777777778)"/><use xlink:href="#d" transform="matrix(1,0,0,1,752,292) translate(103.03086419753086 50.40277777777778)"/><use xlink:href="#e" transform="matrix(1,0,0,1,752,292) translate(62.44444444444444 77.06944444444446)"/><path d="M882.9 886a6 6 0 0 1 6-6h148a6 6 0 0 1 6 6v148a6 6 0 0 1-6 6h-148a6 6 0 0 1-6-6z" stroke="#3a414a" stroke-width="3" fill="#6f7681"/><use xlink:href="#f" transform="matrix(1,0,0,1,887.9106408821757,885) translate(35.5246913580247 64.65277777777777)"/><use xlink:href="#g" transform="matrix(1,0,0,1,887.9106408821757,885) translate(66.38888888888889 64.65277777777777)"/><use xlink:href="#h" transform="matrix(1,0,0,1,887.9106408821757,885) translate(83.67283950617283 64.65277777777777)"/><use xlink:href="#i" transform="matrix(1,0,0,1,887.9106408821757,885) translate(41.08024691358025 91.31944444444446)"/><path d="M1110.37 886a6 6 0 0 1 6-6h148a6 6 0 0 1 6 6v148a6 6 0 0 1-6 6h-148a6 6 0 0 1-6-6z" stroke="#3a414a" stroke-width="3" fill="#6f7681"/><use xlink:href="#f" transform="matrix(1,0,0,1,1115.3744029096265,885) translate(35.5246913580247 64.65277777777777)"/><use xlink:href="#g" transform="matrix(1,0,0,1,1115.3744029096265,885) translate(66.38888888888889 64.65277777777777)"/><use xlink:href="#h" transform="matrix(1,0,0,1,1115.3744029096265,885) translate(83.67283950617283 64.65277777777777)"/><use xlink:href="#i" transform="matrix(1,0,0,1,1115.3744029096265,885) translate(41.08024691358025 91.31944444444446)"/><path d="M1100 626a6 6 0 0 1 6-6h128a6 6 0 0 1 6 6v68a6 6 0 0 1-6 6h-128a6 6 0 0 1-6-6z" stroke="#3a414a" stroke-width="3" fill="#f2f3f5"/><use xlink:href="#j" transform="matrix(1,0,0,1,1105,625) translate(26.172839506172835 39.65277777777778)"/><path d="M1240 626a6 6 0 0 1 6-6h128a6 6 0 0 1 6 6v68a6 6 0 0 1-6 6h-128a6 6 0 0 1-6-6z" stroke="#3a414a" stroke-width="3" fill="#f2f3f5"/><use xlink:href="#j" transform="matrix(1,0,0,1,1245,625) translate(26.172839506172835 39.65277777777778)"/><path d="M660 626a6 6 0 0 1 6-6h128a6 6 0 0 1 6 6v68a6 6 0 0 1-6 6H666a6 6 0 0 1-6-6z" stroke="#3a414a" stroke-width="3" fill="#979ea8"/><use xlink:href="#k" transform="matrix(1,0,0,1,665,625) translate(1.6049382716049436 39.65277777777778)"/><use xlink:href="#l" transform="matrix(1,0,0,1,665,625) translate(86.54320987654322 39.65277777777778)"/><path d="M940 626a6 6 0 0 1 6-6h128a6 6 0 0 1 6 6v68a6 6 0 0 1-6 6H946a6 6 0 0 1-6-6z" stroke="#e81313" stroke-width="3" fill="#ff8f8f"/><use xlink:href="#k" transform="matrix(1,0,0,1,945,625) translate(1.6049382716049436 39.65277777777778)"/><use xlink:href="#l" transform="matrix(1,0,0,1,945,625) translate(86.54320987654322 39.65277777777778)"/><path d="M800 626a6 6 0 0 1 6-6h128a6 6 0 0 1 6 6v68a6 6 0 0 1-6 6H806a6 6 0 0 1-6-6z" stroke="#cc4e00" stroke-width="3" fill="#ffdda6"/><use xlink:href="#k" transform="matrix(1,0,0,1,805,625) translate(1.6049382716049436 39.65277777777778)"/><use xlink:href="#l" transform="matrix(1,0,0,1,805,625) translate(86.54320987654322 39.65277777777778)"/><path d="M1380 626a6 6 0 0 1 6-6h128a6 6 0 0 1 6 6v68a6 6 0 0 1-6 6h-128a6 6 0 0 1-6-6z" stroke="#3a414a" stroke-width="3" fill="#f2f3f5"/><use xlink:href="#j" transform="matrix(1,0,0,1,1385,625) translate(26.172839506172835 39.65277777777778)"/><path d="M903.17 503.94l.06.76.16.7.26.64.37.6.46.54.53.46.6.37.65.27.7.17.75.06h396.33l1.1.1 1.16.26 1.1.45 1 .63.9.76.75.9.62 1 .44 1.08.27 1.15.1 1.1V617h-3V516.06l-.06-.76-.16-.7-.27-.64-.36-.6-.46-.54-.54-.46-.6-.37-.65-.27-.7-.17-.76-.06H907.6l-1.1-.1-1.15-.26-1.1-.45-1-.63-.9-.76-.75-.9-.62-1-.45-1.08-.27-1.15-.1-1.1v-70.1h3z" stroke="#e81313" stroke-width=".05" fill="#e81313"/><path fill="#e81313"/><path stroke="#e81313" stroke-width=".05" fill="#e81313"/><path d="M1311.5 618.5h-3v-1.54h3z" fill="#e81313"/><path d="M1311.53 618.52h-3.06v-1.58h3.06zm-3-1.53v1.48h2.94v-1.5z" stroke="#e81313" stroke-width=".05" fill="#e81313"/><use xlink:href="#m" transform="matrix(1,0,0,1,888.5827181711768,420.63352084601064) translate(0 8.88888888888889)"/><use xlink:href="#n" transform="matrix(1,0,0,1,888.5827181711768,420.63352084601064) translate(19.691358024691358 8.88888888888889)"/><path d="M942.56 514.06l-.1 1.1-.26 1.16-.45 1.1-.62 1-.76.9-.9.75-1 .62-1.1.44-1.14.27-1.1.1H747.24l-.76.06-.7.17-.64.26-.6.36-.54.46-.46.54-.37.6-.28.65-.16.7-.06.76V617h-3v-91.06l.08-1.1.28-1.16.45-1.1.62-1 .77-.9.88-.75 1-.62 1.1-.44 1.14-.27 1.12-.1H935l.76-.06.7-.17.64-.26.6-.36.54-.46.46-.54.37-.6.26-.65.17-.7.06-.76v-79.77h3z" stroke="#3a414a" stroke-width=".05" fill="#3a414a"/><path fill="#3a414a"/><path stroke="#3a414a" stroke-width=".05" fill="#3a414a"/><path d="M742.7 618.5h-3v-1.54h3z" fill="#3a414a"/><path d="M742.72 618.52h-3.05v-1.58h3.05zm-3-1.53v1.48h2.95v-1.5z" stroke="#3a414a" stroke-width=".05" fill="#3a414a"/><use xlink:href="#m" transform="matrix(1,0,0,1,929.3778136479821,420.83324778074024) translate(0 8.88888888888889)"/><use xlink:href="#o" transform="matrix(1,0,0,1,929.3778136479821,420.83324778074024) translate(19.691358024691358 8.88888888888889)"/><path d="M781.3 533.94l.06.76.16.7.27.64.36.6.46.54.54.46.6.37.65.27.7.17.76.06h378.2l1.1.1 1.16.26 1.1.45 1 .63.9.76.75.9.62 1 .44 1.08.27 1.15.1 1.1V617h-3v-70.94l-.06-.76-.16-.7-.27-.64-.36-.6-.46-.54-.54-.46-.6-.37-.65-.27-.7-.17-.76-.06h-378.2l-1.12-.1-1.14-.26-1.1-.45-1-.63-.9-.76-.75-.9-.62-1-.44-1.08-.27-1.15-.1-1.1v-99.9h3z" stroke="#e81313" stroke-width=".05" fill="#e81313"/><path fill="#e81313"/><path stroke="#e81313" stroke-width=".05" fill="#e81313"/><path d="M1171.5 618.5h-3v-1.54h3z" fill="#e81313"/><path d="M1171.53 618.52h-3.06v-1.58h3.06zm-3-1.53v1.48h2.94v-1.5z" stroke="#e81313" stroke-width=".05" fill="#e81313"/><use xlink:href="#p" transform="matrix(1,0,0,1,761.7583913904023,420.8333185094234) translate(0 8.888888888888888)"/><use xlink:href="#q" transform="matrix(1,0,0,1,761.7583913904023,420.8333185094234) translate(29.59876543209876 8.888888888888888)"/><path d="M520 626a6 6 0 0 1 6-6h128a6 6 0 0 1 6 6v68a6 6 0 0 1-6 6H526a6 6 0 0 1-6-6z" stroke="#fcce14" stroke-width="3" fill="#fff7a1"/><use xlink:href="#k" transform="matrix(1,0,0,1,525,625) translate(1.6049382716049436 39.65277777777778)"/><use xlink:href="#l" transform="matrix(1,0,0,1,525,625) translate(86.54320987654322 39.65277777777778)"/><path d="M1310 617v-32.5a6 6 0 0 1 6-6h128a6 6 0 0 1 6 6V617" stroke="#e81313" stroke-width="3" fill="none"/><path d="M1311.5 618.5h-3v-1.54h3zM1451.5 618.5h-3v-1.54h3z" stroke="#e81313" stroke-width=".05" fill="#e81313"/><path d="M1310 703v11a6 6 0 0 1-6 6h-257.8a6 6 0 0 1-6-6v-11" stroke="#e81313" stroke-width="3" fill="none"/><path d="M1311.5 703.04h-3v-1.54h3zM1041.7 703.04h-3v-1.54h3z" stroke="#e81313" stroke-width=".05" fill="#e81313"/><path d="M1170 703v21a6 6 0 0 1-6 6H876a6 6 0 0 1-6-6v-21" stroke="#fc9432" stroke-width="3" fill="none"/><path d="M1171.5 703.04h-3v-1.54h3zM871.5 703.04h-3v-1.54h3z" stroke="#fc9432" stroke-width=".05" fill="#fc9432"/><path d="M1450 703v32.5a6 6 0 0 1-6 6H596a6 6 0 0 1-6-6V703" stroke="#fcce14" stroke-width="3" fill="none"/><path d="M1451.5 703.04h-3v-1.54h3zM591.5 703.04h-3v-1.54h3z" stroke="#fcce14" stroke-width=".05" fill="#fcce14"/><path d="M1421 554.06l-.1 1.1-.27 1.16-.45 1.1-.62 1-.76.9-.9.75-1 .62-1.1.44-1.14.27-1.1.1h-537.5l-.76.06-.7.17-.64.26-.6.36-.54.46-.46.54-.37.6-.27.65-.17.7-.06.76V617h-3v-51.06l.1-1.1.26-1.16.45-1.1.63-1 .76-.9.9-.75 1-.62 1.08-.44 1.15-.27 1.1-.1h537.5l.76-.06.68-.17.65-.26.6-.36.54-.46.46-.54.36-.6.26-.65.17-.7.06-.76V142h3z" stroke="#e81313" stroke-width=".05" fill="#e81313"/><path d="M1421 142.04h-3v-1.54h3z" fill="#e81313"/><path d="M1421 142.06h-3.04v-1.6h3.05zm-3-1.53V142h2.96v-1.47z" stroke="#e81313" stroke-width=".05" fill="#e81313"/><path d="M871.5 618.5h-3v-1.54h3z" fill="#e81313"/><path d="M871.52 618.52h-3.04v-1.58h3.04zm-3-1.53v1.48h2.96v-1.5z" stroke="#e81313" stroke-width=".05" fill="#e81313"/><path d="M1381.8 455.56l-.1 1.1-.27 1.16-.45 1.1-.6 1-.78.9-.9.75-1 .62-1.08.44-1.15.27-1.1.1H825.9l-1.12-.1-1.14-.26-1.1-.45-1-.63-.9-.76-.75-.9-.6-1-.46-1.08-.28-1.15-.08-1.1v-21.4h3v21.27l.06.76.16.7.27.64.37.6.46.54.53.46.6.37.66.27.67.17.76.06h548.2l.77-.06.7-.17.64-.26.6-.36.54-.46.45-.54.37-.6.27-.65.17-.7.06-.76V142h3z" stroke="#3a414a" stroke-width=".05" fill="#3a414a"/><path d="M1381.8 142.04h-3v-1.54h3z" fill="#3a414a"/><path d="M1381.82 142.06h-3.05v-1.6h3.05zm-3-1.53V142h2.95v-1.47z" stroke="#3a414a" stroke-width=".05" fill="#3a414a"/><path fill="#3a414a"/><path stroke="#3a414a" stroke-width=".05" fill="#3a414a"/><use xlink:href="#r" transform="matrix(1,0,0,1,803.3404658752002,420.8333008876018) translate(0 8.88888888888889)"/><use xlink:href="#o" transform="matrix(1,0,0,1,803.3404658752002,420.8333008876018) translate(29.598765432098766 8.88888888888889)"/><path d="M1171.25 877h-3v-.9h3zm-6.33-39.9l1.15.26 1.08.45 1 .63.9.76.77.9.6 1 .46 1.08.28 1.15.1 1.1v10.33h-3v-10.2l-.07-.76-.18-.7-.27-.64-.37-.6-.45-.54-.54-.46-.6-.37-.66-.27-.7-.17-.75-.06H987.93l-.76.06-.7.17-.64.26-.6.36-.54.46-.46.54-.37.6-.27.65-.16.7-.06.76v13.62h-3v-13.74l.1-1.1.26-1.16.45-1.1.6-1 .77-.9.9-.75 1-.62 1.1-.44 1.13-.27 1.12-.1h176z" stroke="#e81313" stroke-width=".05" fill="#e81313"/><path fill="#e81313"/><path stroke="#e81313" stroke-width=".05" fill="#e81313"/><path d="M1171.25 878.5h-3v-1.54h3z" fill="#e81313"/><path d="M1171.27 878.52h-3.05v-1.58h3.05zm-3-1.53v1.48h2.95v-1.5z" stroke="#e81313" stroke-width=".05" fill="#e81313"/><use xlink:href="#s" transform="matrix(1,0,0,1,976.6936136532627,858.1765731171058) translate(0 14.222222222222223)"/><use xlink:href="#t" transform="matrix(1,0,0,1,1166.8086300650673,854.7633348204167) translate(0 14.222222222222223)"/><path d="M944.7 877h-3v-6.17h3zm270.84-48.4l1.14.26 1.1.45 1 .63.9.76.75.9.62 1 .45 1.08.28 1.15.08 1.1V858h-3v-21.94l-.06-.76-.16-.7-.27-.64-.37-.6-.46-.54-.53-.46-.6-.37-.65-.27-.68-.17-.77-.06H949.25l-.76.06-.7.17-.65.26-.6.36-.54.46-.45.54-.37.6-.26.65-.17.7-.06.76v13.44h-3v-13.56l.08-1.1.27-1.16.45-1.1.62-1 .76-.9.9-.75 1-.62 1.1-.44 1.14-.27 1.1-.1h265.3z" stroke="#3a414a" stroke-width=".05" fill="#3a414a"/><path d="M944.7 878.5h-3v-1.54h3z" fill="#3a414a"/><path d="M944.72 878.52h-3.05v-1.58h3.05zm-3-1.53v1.48h2.95v-1.5z" stroke="#3a414a" stroke-width=".05" fill="#3a414a"/><path fill="#3a414a"/><path stroke="#3a414a" stroke-width=".05" fill="#3a414a"/><use xlink:href="#t" transform="matrix(1,0,0,1,940.2525226751865,849.4989535167309) translate(0 14.222222222222223)"/><use xlink:href="#s" transform="matrix(1,0,0,1,1215.177956305576,857.9885771090691) translate(0 14.222222222222223)"/><path d="M982.45 788.8l.13.06.44.44.28.55.08.5v67.83h-3V791.2l-.13-.06-.44-.44-.28-.55-.07-.5V703h3z" stroke="#e81313" stroke-width=".05" fill="#e81313"/><path d="M982.45 703.04h-3v-1.54h3z" fill="#e81313"/><path d="M982.47 703.06h-3.05v-1.58h3.05zm-3-1.53V703h2.95v-1.48z" stroke="#e81313" stroke-width=".05" fill="#e81313"/><path fill="#e81313"/><path stroke="#e81313" stroke-width=".05" fill="#e81313"/><path d="M731.5 783.94l.06.76.17.7.26.64.36.6.46.54.54.46.6.37.65.27.7.17.76.06h478.36l1.12.1 1.14.26 1.1.45 1 .63.9.76.75.9.62 1 .45 1.08.28 1.15.08 1.1V858h-3v-61.94l-.06-.76-.16-.7-.27-.64-.37-.6-.46-.54-.53-.46-.6-.37-.65-.27-.68-.17-.77-.06H735.94l-1.1-.1-1.16-.26-1.1-.45-1-.63-.9-.76-.75-.9-.62-1-.44-1.08-.27-1.15-.1-1.1V703h3z" stroke="#3a414a" stroke-width=".05" fill="#3a414a"/><path fill="#3a414a"/><path stroke="#3a414a" stroke-width=".05" fill="#3a414a"/><path d="M731.5 703.04h-3v-1.54h3z" fill="#3a414a"/><path d="M731.52 703.06h-3.04v-1.58h3.04zm-3-1.53V703h2.96v-1.48z" stroke="#3a414a" stroke-width=".05" fill="#3a414a"/><path d="M720.85 617V446a6 6 0 0 0-6-6H181.5" stroke="#3a414a" stroke-width="3" fill="none"/><path d="M722.35 618.5h-3v-1.54h3z" stroke="#3a414a" stroke-width=".05" fill="#3a414a"/><path d="M181.54 440H180" stroke="#3a414a" stroke-width="3" fill="none"/><path d="M590 617V466a6 6 0 0 0-6-6H181.5" stroke="#e81313" stroke-width="3" fill="none"/><path d="M591.5 618.5h-3v-1.54h3z" stroke="#e81313" stroke-width=".05" fill="#e81313"/><path d="M181.54 460H180" stroke="#e81313" stroke-width="3" fill="none"/><path d="M557.5 242.5H346.1l-.65.05-.53.13-.5.2-.47.3-.42.35-.35.42-.3.47-.2.5-.13.53-.05.65v837.8l.05.65.13.53.2.5.3.47.35.42.42.36.47.28.5.22.53.13.65.05h1227.8l.65-.05.53-.13.5-.2.47-.3.42-.35.36-.42.28-.46.22-.52.13-.53.05-.65V246.1l-.05-.65-.13-.53-.2-.5-.3-.47-.35-.42-.42-.35-.46-.3-.52-.2-.53-.13-.65-.05H562.5v-5h1011.6l1.23.1 1.3.3 1.23.52 1.14.7 1.02.86.86 1.02.7 1.14.5 1.23.32 1.3.1 1.23v838.2l-.1 1.23-.3 1.3-.52 1.23-.7 1.14-.86 1.02-1.02.86-1.14.7-1.23.5-1.3.32-1.23.1H345.9l-1.23-.1-1.3-.3-1.23-.52-1.14-.7-1.02-.86-.86-1.02-.7-1.14-.5-1.23-.32-1.3-.1-1.23V245.9l.1-1.23.3-1.3.52-1.23.7-1.14.86-1.02 1.02-.86 1.14-.7 1.23-.5 1.3-.32 1.23-.1h211.6z" stroke="#6f7681" stroke-width=".05" fill="#6f7681"/><path d="M562.56 242.5H560v-5h2.56zM560 242.5h-2.56v-5H560z" stroke="#6f7681" stroke-width=".05" fill="#6f7681"/><path d="M440 266a6 6 0 0 1 6-6h268a6 6 0 0 1 6 6v108a6 6 0 0 1-6 6H446a6 6 0 0 1-6-6z" stroke="#000" stroke-opacity="0" stroke-width="3" fill="#fff" fill-opacity="0"/><use xlink:href="#u" transform="matrix(1,0,0,1,445,265) translate(21.82407407407412 40.534722222222214)"/><use xlink:href="#v" transform="matrix(1,0,0,1,445,265) translate(139.14506172839504 40.534722222222214)"/><use xlink:href="#w" transform="matrix(1,0,0,1,445,265) translate(104.56790123456791 85.86805555555554)"/><path d="M120 46a6 6 0 0 1 6-6h108a6 6 0 0 1 6 6v148a6 6 0 0 1-6 6H126a6 6 0 0 1-6-6z" stroke="#3a414a" stroke-width="3" fill="#f2f3f5"/><use xlink:href="#x" transform="matrix(1,0,0,1,125,45) translate(22.98148148148148 65.29861111111111)"/><use xlink:href="#y" transform="matrix(1,0,0,1,125,45) translate(2.8395061728395135 99.96527777777777)"/><path d="M380 1246a6 6 0 0 1 6-6h368a6 6 0 0 1 6 6v288a6 6 0 0 1-6 6H386a6 6 0 0 1-6-6z" stroke="#cfe4ff" stroke-width="4" fill="#edf5ff"/><path d="M181.5 1373.94l.06.76.16.7.28.64.36.6.46.54.54.46.6.37.65.28.7.16.76.06h218l1.1.1 1.16.26 1.1.45 1 .63.9.76.75.9.62 1 .44 1.08.27 1.15.1 1.1v94.68l.06.77.17.7.26.64.36.6.46.55.54.46.6.38.65.27.7.16.76.07h45.65v3h-45.76l-1.1-.1-1.16-.26-1.1-.44-1-.62-.9-.76-.75-.9-.62-1-.44-1.1-.27-1.14-.1-1.1v-94.68l-.06-.76-.17-.7-.26-.64-.36-.6-.46-.54-.54-.46-.6-.37-.65-.28-.7-.16-.76-.06h-218l-1.1-.1-1.16-.26-1.1-.45-1-.63-.9-.76-.75-.9-.62-1-.44-1.08-.27-1.15-.1-1.1V203h3zM577 1485.17v3h-45.36v-3z" stroke="#000" stroke-width=".05"/><path d="M181.5 203.04h-3v-1.54h3z"/><path d="M181.53 203.06h-3.06v-1.6h3.06zm-3-1.53V203h2.94v-1.47z" stroke="#000" stroke-width=".05"/><path d="M578.5 1488.17h-1.54v-3h1.54z"/><path d="M578.52 1488.2h-1.58v-3.06h1.58zm-1.53-3v2.94h1.48v-2.95z" stroke="#000" stroke-width=".05"/><g><use xlink:href="#z" transform="matrix(1,0,0,1,461.7122068841691,1476.0035921413305) translate(0 14.222222222222223)"/></g><path d="M580 1366a6 6 0 0 1 6-6h148a6 6 0 0 1 6 6v148a6 6 0 0 1-6 6H586a6 6 0 0 1-6-6z" stroke="#54c45e" stroke-width="3" fill="#c3f7c8"/><g><use xlink:href="#A" transform="matrix(1,0,0,1,585,1365) translate(12.160493827160494 78.71527777777777)"/><use xlink:href="#B" transform="matrix(1,0,0,1,585,1365) translate(120.61728395061729 78.71527777777777)"/></g><path d="M400 1286a6 6 0 0 1 6-6h128a6 6 0 0 1 6 6v68a6 6 0 0 1-6 6H406a6 6 0 0 1-6-6z" stroke="#000" stroke-width="3" fill="#fff"/><g><use xlink:href="#C" transform="matrix(1,0,0,1,405,1285) translate(5.061728395061728 33.09027777777778)"/><use xlink:href="#D" transform="matrix(1,0,0,1,405,1285) translate(42.46913580246915 50.86805555555556)"/><use xlink:href="#E" transform="matrix(1,0,0,1,405,1285) translate(63.45679012345679 50.86805555555556)"/><use xlink:href="#F" transform="matrix(1,0,0,1,405,1285) translate(75.80246913580245 50.86805555555556)"/></g><path d="M411 1401.28h44.28a6 6 0 0 0 6-6v-32.78M411.03 1401.28H410" stroke="#e81313" stroke-width="2" fill="none"/><path d="M462.28 1362.53h-2v-1.03h2z" stroke="#e81313" stroke-width=".05" fill="#e81313"/><path d="M411 1413.62h60.07a6 6 0 0 0 6-6v-45.12M411.03 1413.62H410" stroke="#000" stroke-width="2" fill="none"/><path d="M478.07 1362.53h-2v-1.03h2z" stroke="#000" stroke-width=".05"/><path d="M542.5 1326.65h92.02a6 6 0 0 1 6 6v24.85" stroke="#000" stroke-width="2" fill="none"/><path d="M542.53 1327.65h-1.03v-2h1.03zM641.52 1358.5h-2v-1.03h2z" stroke="#000" stroke-width=".05"/><path d="M542.5 1310.57h121.93a6 6 0 0 1 6 6v40.93" stroke="#e81313" stroke-width="2" fill="none"/><path d="M542.53 1311.57h-1.03v-2h1.03zM671.43 1358.5h-2v-1.03h2z" stroke="#e81313" stroke-width=".05" fill="#e81313"/><path d="M540 1246a6 6 0 0 1 6-6h208a6 6 0 0 1 6 6v48a6 6 0 0 1-6 6H546a6 6 0 0 1-6-6z" stroke="#000" stroke-opacity="0" fill="#fff" fill-opacity="0"/><g><use xlink:href="#G" transform="matrix(1,0,0,1,545,1245) translate(47.716049382716044 20.90277777777778)"/><use xlink:href="#H" transform="matrix(1,0,0,1,545,1245) translate(55.679012345679006 47.56944444444444)"/></g><defs><path fill="#3a414a" d="M185-189c-5-48-123-54-124 2 14 75 158 14 163 119 3 78-121 87-175 55-17-10-28-26-33-46l33-7c5 56 141 63 141-1 0-78-155-14-162-118-5-82 145-84 179-34 5 7 8 16 11 25" id="I"/><path fill="#3a414a" d="M100-194c62-1 85 37 85 99 1 63-27 99-86 99S16-35 15-95c0-66 28-99 85-99zM99-20c44 1 53-31 53-75 0-43-8-75-51-75s-53 32-53 75 10 74 51 75" id="J"/><path fill="#3a414a" d="M24 0v-261h32V0H24" id="K"/><path fill="#3a414a" d="M141-36C126-15 110 5 73 4 37 3 15-17 15-53c-1-64 63-63 125-63 3-35-9-54-41-54-24 1-41 7-42 31l-33-3c5-37 33-52 76-52 45 0 72 20 72 64v82c-1 20 7 32 28 27v20c-31 9-61-2-59-35zM48-53c0 20 12 33 32 33 41-3 63-29 60-74-43 2-92-5-92 41" id="L"/><path fill="#3a414a" d="M114-163C36-179 61-72 57 0H25l-1-190h30c1 12-1 29 2 39 6-27 23-49 58-41v29" id="M"/><g id="a"><use transform="matrix(0.10493827160493824,0,0,0.10493827160493824,0,0)" xlink:href="#I"/><use transform="matrix(0.10493827160493824,0,0,0.10493827160493824,25.185185185185176,0)" xlink:href="#J"/><use transform="matrix(0.10493827160493824,0,0,0.10493827160493824,46.17283950617282,0)" xlink:href="#K"/><use transform="matrix(0.10493827160493824,0,0,0.10493827160493824,54.46296296296295,0)" xlink:href="#L"/><use transform="matrix(0.10493827160493824,0,0,0.10493827160493824,75.45061728395059,0)" xlink:href="#M"/></g><path fill="#3a414a" d="M30-248c87 1 191-15 191 75 0 78-77 80-158 76V0H30v-248zm33 125c57 0 124 11 124-50 0-59-68-47-124-48v98" id="N"/><path fill="#3a414a" d="M117-194c89-4 53 116 60 194h-32v-121c0-31-8-49-39-48C34-167 62-67 57 0H25l-1-190h30c1 10-1 24 2 32 11-22 29-35 61-36" id="O"/><path fill="#3a414a" d="M100-194c63 0 86 42 84 106H49c0 40 14 67 53 68 26 1 43-12 49-29l28 8c-11 28-37 45-77 45C44 4 14-33 15-96c1-61 26-98 85-98zm52 81c6-60-76-77-97-28-3 7-6 17-6 28h103" id="P"/><g id="b"><use transform="matrix(0.10493827160493824,0,0,0.10493827160493824,0,0)" xlink:href="#N"/><use transform="matrix(0.10493827160493824,0,0,0.10493827160493824,25.185185185185176,0)" xlink:href="#L"/><use transform="matrix(0.10493827160493824,0,0,0.10493827160493824,46.17283950617282,0)" xlink:href="#O"/><use transform="matrix(0.10493827160493824,0,0,0.10493827160493824,67.16049382716047,0)" xlink:href="#P"/><use transform="matrix(0.10493827160493824,0,0,0.10493827160493824,88.14814814814811,0)" xlink:href="#K"/></g><g id="c"><use transform="matrix(0.06172839506172839,0,0,0.06172839506172839,0,0)" xlink:href="#I"/><use transform="matrix(0.06172839506172839,0,0,0.06172839506172839,14.814814814814813,0)" xlink:href="#J"/><use transform="matrix(0.06172839506172839,0,0,0.06172839506172839,27.160493827160494,0)" xlink:href="#K"/><use transform="matrix(0.06172839506172839,0,0,0.06172839506172839,32.03703703703704,0)" xlink:href="#L"/><use transform="matrix(0.06172839506172839,0,0,0.06172839506172839,44.382716049382715,0)" xlink:href="#M"/></g><path fill="#3a414a" d="M96-169c-40 0-48 33-48 73s9 75 48 75c24 0 41-14 43-38l32 2c-6 37-31 61-74 61-59 0-76-41-82-99-10-93 101-131 147-64 4 7 5 14 7 22l-32 3c-4-21-16-35-41-35" id="Q"/><path fill="#3a414a" d="M106-169C34-169 62-67 57 0H25v-261h32l-1 103c12-21 28-36 61-36 89 0 53 116 60 194h-32v-121c2-32-8-49-39-48" id="R"/><path fill="#3a414a" d="M177-190C167-65 218 103 67 71c-23-6-38-20-44-43l32-5c15 47 100 32 89-28v-30C133-14 115 1 83 1 29 1 15-40 15-95c0-56 16-97 71-98 29-1 48 16 59 35 1-10 0-23 2-32h30zM94-22c36 0 50-32 50-73 0-42-14-75-50-75-39 0-46 34-46 75s6 73 46 73" id="S"/><g id="d"><use transform="matrix(0.06172839506172839,0,0,0.06172839506172839,0,0)" xlink:href="#Q"/><use transform="matrix(0.06172839506172839,0,0,0.06172839506172839,11.11111111111111,0)" xlink:href="#R"/><use transform="matrix(0.06172839506172839,0,0,0.06172839506172839,23.45679012345679,0)" xlink:href="#L"/><use transform="matrix(0.06172839506172839,0,0,0.06172839506172839,35.80246913580247,0)" xlink:href="#M"/><use transform="matrix(0.06172839506172839,0,0,0.06172839506172839,43.148148148148145,0)" xlink:href="#S"/><use transform="matrix(0.06172839506172839,0,0,0.06172839506172839,55.49382716049382,0)" xlink:href="#P"/></g><path fill="#3a414a" d="M59-47c-2 24 18 29 38 22v24C64 9 27 4 27-40v-127H5v-23h24l9-43h21v43h35v23H59v120" id="T"/><g id="e"><use transform="matrix(0.06172839506172839,0,0,0.06172839506172839,0,0)" xlink:href="#Q"/><use transform="matrix(0.06172839506172839,0,0,0.06172839506172839,11.11111111111111,0)" xlink:href="#J"/><use transform="matrix(0.06172839506172839,0,0,0.06172839506172839,23.45679012345679,0)" xlink:href="#O"/><use transform="matrix(0.06172839506172839,0,0,0.06172839506172839,35.80246913580247,0)" xlink:href="#T"/><use transform="matrix(0.06172839506172839,0,0,0.06172839506172839,41.97530864197531,0)" xlink:href="#M"/><use transform="matrix(0.06172839506172839,0,0,0.06172839506172839,49.32098765432099,0)" xlink:href="#J"/><use transform="matrix(0.06172839506172839,0,0,0.06172839506172839,61.666666666666664,0)" xlink:href="#K"/><use transform="matrix(0.06172839506172839,0,0,0.06172839506172839,66.5432098765432,0)" xlink:href="#K"/><use transform="matrix(0.06172839506172839,0,0,0.06172839506172839,71.41975308641975,0)" xlink:href="#P"/><use transform="matrix(0.06172839506172839,0,0,0.06172839506172839,83.76543209876543,0)" xlink:href="#M"/></g><path fill="#3a414a" d="M27 0v-27h64v-190l-56 39v-29l58-41h29v221h61V0H27" id="U"/><path fill="#3a414a" d="M101-251c82-7 93 87 43 132L82-64C71-53 59-42 53-27h129V0H18c2-99 128-94 128-182 0-28-16-43-45-43s-46 15-49 41l-32-3c6-41 34-60 81-64" id="V"/><g id="f"><use transform="matrix(0.06172839506172839,0,0,0.06172839506172839,0,0)" xlink:href="#U"/><use transform="matrix(0.06172839506172839,0,0,0.06172839506172839,12.345679012345679,0)" xlink:href="#V"/></g><path fill="#3a414a" d="M108 0H70L1-190h34L89-25l56-165h34" id="W"/><use transform="matrix(0.06172839506172839,0,0,0.06172839506172839,0,0)" xlink:href="#W" id="g"/><g id="h"><use transform="matrix(0.06172839506172839,0,0,0.06172839506172839,0,0)" xlink:href="#Q"/><use transform="matrix(0.06172839506172839,0,0,0.06172839506172839,11.11111111111111,0)" xlink:href="#L"/><use transform="matrix(0.06172839506172839,0,0,0.06172839506172839,23.45679012345679,0)" xlink:href="#M"/></g><path fill="#3a414a" d="M115-194c53 0 69 39 70 98 0 66-23 100-70 100C84 3 66-7 56-30L54 0H23l1-261h32v101c10-23 28-34 59-34zm-8 174c40 0 45-34 45-75 0-40-5-75-45-74-42 0-51 32-51 76 0 43 10 73 51 73" id="X"/><path fill="#3a414a" d="M179-190L93 31C79 59 56 82 12 73V49c39 6 53-20 64-50L1-190h34L92-34l54-156h33" id="Y"/><g id="i"><use transform="matrix(0.06172839506172839,0,0,0.06172839506172839,0,0)" xlink:href="#X"/><use transform="matrix(0.06172839506172839,0,0,0.06172839506172839,12.345679012345679,0)" xlink:href="#L"/><use transform="matrix(0.06172839506172839,0,0,0.06172839506172839,24.691358024691358,0)" xlink:href="#T"/><use transform="matrix(0.06172839506172839,0,0,0.06172839506172839,30.864197530864196,0)" xlink:href="#T"/><use transform="matrix(0.06172839506172839,0,0,0.06172839506172839,37.03703703703704,0)" xlink:href="#P"/><use transform="matrix(0.06172839506172839,0,0,0.06172839506172839,49.382716049382715,0)" xlink:href="#M"/><use transform="matrix(0.06172839506172839,0,0,0.06172839506172839,56.72839506172839,0)" xlink:href="#Y"/></g><path fill="#3a414a" d="M160-131c35 5 61 23 61 61C221 17 115-2 30 0v-248c76 3 177-17 177 60 0 33-19 50-47 57zm-97-11c50-1 110 9 110-42 0-47-63-36-110-37v79zm0 115c55-2 124 14 124-45 0-56-70-42-124-44v89" id="Z"/><path fill="#3a414a" d="M143 0L79-87 56-68V0H24v-261h32v163l83-92h37l-77 82L181 0h-38" id="aa"/><g id="j"><use transform="matrix(0.06172839506172839,0,0,0.06172839506172839,0,0)" xlink:href="#Z"/><use transform="matrix(0.06172839506172839,0,0,0.06172839506172839,14.814814814814813,0)" xlink:href="#M"/><use transform="matrix(0.06172839506172839,0,0,0.06172839506172839,22.160493827160494,0)" xlink:href="#P"/><use transform="matrix(0.06172839506172839,0,0,0.06172839506172839,34.50617283950617,0)" xlink:href="#L"/><use transform="matrix(0.06172839506172839,0,0,0.06172839506172839,46.85185185185185,0)" xlink:href="#aa"/><use transform="matrix(0.06172839506172839,0,0,0.06172839506172839,57.96296296296296,0)" xlink:href="#P"/><use transform="matrix(0.06172839506172839,0,0,0.06172839506172839,70.30864197530865,0)" xlink:href="#M"/></g><path fill="#3a414a" d="M210-169c-67 3-38 105-44 169h-31v-121c0-29-5-50-35-48C34-165 62-65 56 0H25l-1-190h30c1 10-1 24 2 32 10-44 99-50 107 0 11-21 27-35 58-36 85-2 47 119 55 194h-31v-121c0-29-5-49-35-48" id="ab"/><path fill="#3a414a" d="M24-231v-30h32v30H24zM24 0v-190h32V0H24" id="ac"/><g id="k"><use transform="matrix(0.06172839506172839,0,0,0.06172839506172839,0,0)" xlink:href="#T"/><use transform="matrix(0.06172839506172839,0,0,0.06172839506172839,6.172839506172839,0)" xlink:href="#P"/><use transform="matrix(0.06172839506172839,0,0,0.06172839506172839,18.51851851851852,0)" xlink:href="#M"/><use transform="matrix(0.06172839506172839,0,0,0.06172839506172839,25.864197530864196,0)" xlink:href="#ab"/><use transform="matrix(0.06172839506172839,0,0,0.06172839506172839,44.32098765432099,0)" xlink:href="#ac"/><use transform="matrix(0.06172839506172839,0,0,0.06172839506172839,49.19753086419753,0)" xlink:href="#O"/><use transform="matrix(0.06172839506172839,0,0,0.06172839506172839,61.54320987654321,0)" xlink:href="#L"/><use transform="matrix(0.06172839506172839,0,0,0.06172839506172839,73.88888888888889,0)" xlink:href="#K"/></g><path fill="#3a414a" d="M135-143c-3-34-86-38-87 0 15 53 115 12 119 90S17 21 10-45l28-5c4 36 97 45 98 0-10-56-113-15-118-90-4-57 82-63 122-42 12 7 21 19 24 35" id="ad"/><path fill="#3a414a" d="M115-194c55 1 70 41 70 98S169 2 115 4C84 4 66-9 55-30l1 105H24l-1-265h31l2 30c10-21 28-34 59-34zm-8 174c40 0 45-34 45-75s-6-73-45-74c-42 0-51 32-51 76 0 43 10 73 51 73" id="ae"/><g id="l"><use transform="matrix(0.06172839506172839,0,0,0.06172839506172839,0,0)" xlink:href="#ad"/><use transform="matrix(0.06172839506172839,0,0,0.06172839506172839,11.11111111111111,0)" xlink:href="#T"/><use transform="matrix(0.06172839506172839,0,0,0.06172839506172839,17.28395061728395,0)" xlink:href="#M"/><use transform="matrix(0.06172839506172839,0,0,0.06172839506172839,24.629629629629626,0)" xlink:href="#ac"/><use transform="matrix(0.06172839506172839,0,0,0.06172839506172839,29.50617283950617,0)" xlink:href="#ae"/></g><path fill="#333" d="M135-194c52 0 70 43 70 98 0 56-19 99-73 100-30 1-46-15-58-35L72 0H24l1-261h50v104c11-23 29-37 60-37zM114-30c31 0 40-27 40-66 0-37-7-63-39-63s-41 28-41 65c0 36 8 64 40 64" id="af"/><path fill="#333" d="M133-34C117-15 103 5 69 4 32 3 11-16 11-54c-1-60 55-63 116-61 1-26-3-47-28-47-18 1-26 9-28 27l-52-2c7-38 36-58 82-57s74 22 75 68l1 82c-1 14 12 18 25 15v27c-30 8-71 5-69-32zm-48 3c29 0 43-24 42-57-32 0-66-3-65 30 0 17 8 27 23 27" id="ag"/><path fill="#333" d="M115-3C79 11 28 4 28-45v-112H4v-33h27l15-45h31v45h36v33H77v99c-1 23 16 31 38 25v30" id="ah"/><g id="m"><use transform="matrix(0.030864197530864196,0,0,0.030864197530864196,0,0)" xlink:href="#af"/><use transform="matrix(0.030864197530864196,0,0,0.030864197530864196,6.759259259259259,0)" xlink:href="#ag"/><use transform="matrix(0.030864197530864196,0,0,0.030864197530864196,12.932098765432098,0)" xlink:href="#ah"/></g><path fill="#333" d="M125-100v72H85v-72H15v-39h70v-72h40v72h71v39h-71" id="ai"/><use transform="matrix(0.030864197530864196,0,0,0.030864197530864196,0,0)" xlink:href="#ai" id="n"/><path fill="#333" d="M14-72v-43h91v43H14" id="aj"/><use transform="matrix(0.030864197530864196,0,0,0.030864197530864196,0,0)" xlink:href="#aj" id="o"/><path fill="#333" d="M137-138c1-29-70-34-71-4 15 46 118 7 119 86 1 83-164 76-172 9l43-7c4 19 20 25 44 25 33 8 57-30 24-41C81-84 22-81 20-136c-2-80 154-74 161-7" id="ak"/><path fill="#333" d="M110-194c64 0 96 36 96 99 0 64-35 99-97 99-61 0-95-36-95-99 0-62 34-99 96-99zm-1 164c35 0 45-28 45-65 0-40-10-65-43-65-34 0-45 26-45 65 0 36 10 65 43 65" id="al"/><path fill="#333" d="M25 0v-261h50V0H25" id="am"/><path fill="#333" d="M135-150c-39-12-60 13-60 57V0H25l-1-190h47c2 13-1 29 3 40 6-28 27-53 61-41v41" id="an"/><g id="p"><use transform="matrix(0.030864197530864192,0,0,0.030864197530864192,0,0)" xlink:href="#ak"/><use transform="matrix(0.030864197530864192,0,0,0.030864197530864192,6.1728395061728385,0)" xlink:href="#al"/><use transform="matrix(0.030864197530864192,0,0,0.030864197530864192,12.932098765432096,0)" xlink:href="#am"/><use transform="matrix(0.030864197530864192,0,0,0.030864197530864192,16.018518518518515,0)" xlink:href="#ag"/><use transform="matrix(0.030864197530864192,0,0,0.030864197530864192,22.191358024691354,0)" xlink:href="#an"/></g><use transform="matrix(0.030864197530864192,0,0,0.030864197530864192,0,0)" xlink:href="#ai" id="q"/><g id="r"><use transform="matrix(0.030864197530864196,0,0,0.030864197530864196,0,0)" xlink:href="#ak"/><use transform="matrix(0.030864197530864196,0,0,0.030864197530864196,6.172839506172839,0)" xlink:href="#al"/><use transform="matrix(0.030864197530864196,0,0,0.030864197530864196,12.932098765432098,0)" xlink:href="#am"/><use transform="matrix(0.030864197530864196,0,0,0.030864197530864196,16.01851851851852,0)" xlink:href="#ag"/><use transform="matrix(0.030864197530864196,0,0,0.030864197530864196,22.191358024691358,0)" xlink:href="#an"/></g><use transform="matrix(0.04938271604938272,0,0,0.04938271604938272,0,0)" xlink:href="#ai" id="s"/><use transform="matrix(0.04938271604938272,0,0,0.04938271604938272,0,0)" xlink:href="#aj" id="t"/><path fill="#3a414a" d="M206 0h-36l-40-164L89 0H53L-1-190h32L70-26l43-164h34l41 164 42-164h31" id="ao"/><g id="u"><use transform="matrix(0.10493827160493824,0,0,0.10493827160493824,0,0)" xlink:href="#N"/><use transform="matrix(0.10493827160493824,0,0,0.10493827160493824,25.185185185185176,0)" xlink:href="#J"/><use transform="matrix(0.10493827160493824,0,0,0.10493827160493824,46.17283950617282,0)" xlink:href="#ao"/><use transform="matrix(0.10493827160493824,0,0,0.10493827160493824,73.35185185185182,0)" xlink:href="#P"/><use transform="matrix(0.10493827160493824,0,0,0.10493827160493824,94.33950617283946,0)" xlink:href="#M"/></g><path fill="#3a414a" d="M84 4C-5 8 30-112 23-190h32v120c0 31 7 50 39 49 72-2 45-101 50-169h31l1 190h-30c-1-10 1-25-2-33-11 22-28 36-60 37" id="ap"/><g id="v"><use transform="matrix(0.10493827160493824,0,0,0.10493827160493824,0,0)" xlink:href="#ad"/><use transform="matrix(0.10493827160493824,0,0,0.10493827160493824,18.888888888888882,0)" xlink:href="#ap"/><use transform="matrix(0.10493827160493824,0,0,0.10493827160493824,39.87654320987653,0)" xlink:href="#ae"/><use transform="matrix(0.10493827160493824,0,0,0.10493827160493824,60.864197530864175,0)" xlink:href="#ae"/><use transform="matrix(0.10493827160493824,0,0,0.10493827160493824,81.85185185185182,0)" xlink:href="#K"/><use transform="matrix(0.10493827160493824,0,0,0.10493827160493824,90.14197530864195,0)" xlink:href="#Y"/></g><path fill="#3a414a" d="M141 0L90-78 38 0H4l68-98-65-92h35l48 74 47-74h35l-64 92 68 98h-35" id="aq"/><g id="w"><use transform="matrix(0.10493827160493824,0,0,0.10493827160493824,0,0)" xlink:href="#X"/><use transform="matrix(0.10493827160493824,0,0,0.10493827160493824,20.987654320987648,0)" xlink:href="#J"/><use transform="matrix(0.10493827160493824,0,0,0.10493827160493824,41.975308641975296,0)" xlink:href="#aq"/></g><path fill="#3a414a" d="M85-194c31 0 48 13 60 33l-1-100h32l1 261h-30c-2-10 0-23-3-31C134-8 116 4 85 4 32 4 16-35 15-94c0-66 23-100 70-100zm9 24c-40 0-46 34-46 75 0 40 6 74 45 74 42 0 51-32 51-76 0-42-9-74-50-73" id="ar"/><g id="x"><use transform="matrix(0.08024691358024691,0,0,0.08024691358024691,0,0)" xlink:href="#M"/><use transform="matrix(0.08024691358024691,0,0,0.08024691358024691,9.549382716049383,0)" xlink:href="#L"/><use transform="matrix(0.08024691358024691,0,0,0.08024691358024691,25.598765432098762,0)" xlink:href="#ar"/><use transform="matrix(0.08024691358024691,0,0,0.08024691358024691,41.64814814814815,0)" xlink:href="#ac"/><use transform="matrix(0.08024691358024691,0,0,0.08024691358024691,47.98765432098766,0)" xlink:href="#J"/></g><g id="y"><use transform="matrix(0.08024691358024691,0,0,0.08024691358024691,0,0)" xlink:href="#L"/><use transform="matrix(0.08024691358024691,0,0,0.08024691358024691,16.049382716049383,0)" xlink:href="#O"/><use transform="matrix(0.08024691358024691,0,0,0.08024691358024691,32.098765432098766,0)" xlink:href="#T"/><use transform="matrix(0.08024691358024691,0,0,0.08024691358024691,40.123456790123456,0)" xlink:href="#P"/><use transform="matrix(0.08024691358024691,0,0,0.08024691358024691,56.172839506172835,0)" xlink:href="#O"/><use transform="matrix(0.08024691358024691,0,0,0.08024691358024691,72.22222222222221,0)" xlink:href="#O"/><use transform="matrix(0.08024691358024691,0,0,0.08024691358024691,88.2716049382716,0)" xlink:href="#L"/></g><path fill="#333" d="M185-48c-13 30-37 53-82 52C43 2 14-33 14-96s30-98 90-98c62 0 83 45 84 108H66c0 31 8 55 39 56 18 0 30-7 34-22zm-45-69c5-46-57-63-70-21-2 6-4 13-4 21h74" id="as"/><path fill="#333" d="M114-157C55-157 80-60 75 0H25v-261h50l-1 109c12-26 28-41 61-42 86-1 58 113 63 194h-50c-7-57 23-157-34-157" id="at"/><path fill="#333" d="M135-194c87-1 58 113 63 194h-50c-7-57 23-157-34-157-59 0-34 97-39 157H25l-1-190h47c2 12-1 28 3 38 12-26 28-41 61-42" id="au"/><g id="z"><use transform="matrix(0.04938271604938272,0,0,0.04938271604938272,0,0)" xlink:href="#as"/><use transform="matrix(0.04938271604938272,0,0,0.04938271604938272,9.876543209876544,0)" xlink:href="#ah"/><use transform="matrix(0.04938271604938272,0,0,0.04938271604938272,15.753086419753087,0)" xlink:href="#at"/><use transform="matrix(0.04938271604938272,0,0,0.04938271604938272,26.567901234567902,0)" xlink:href="#as"/><use transform="matrix(0.04938271604938272,0,0,0.04938271604938272,36.44444444444445,0)" xlink:href="#an"/><use transform="matrix(0.04938271604938272,0,0,0.04938271604938272,43.35802469135803,0)" xlink:href="#au"/><use transform="matrix(0.04938271604938272,0,0,0.04938271604938272,54.17283950617284,0)" xlink:href="#as"/><use transform="matrix(0.04938271604938272,0,0,0.04938271604938272,64.0493827160494,0)" xlink:href="#ah"/></g><path fill="#3a414a" d="M233-177c-1 41-23 64-60 70L243 0h-38l-65-103H63V0H30v-248c88 3 205-21 203 71zM63-129c60-2 137 13 137-47 0-61-80-42-137-45v92" id="av"/><g id="A"><use transform="matrix(0.06172839506172839,0,0,0.06172839506172839,0,0)" xlink:href="#av"/><use transform="matrix(0.06172839506172839,0,0,0.06172839506172839,15.987654320987653,0)" xlink:href="#L"/><use transform="matrix(0.06172839506172839,0,0,0.06172839506172839,28.333333333333332,0)" xlink:href="#ad"/><use transform="matrix(0.06172839506172839,0,0,0.06172839506172839,39.44444444444444,0)" xlink:href="#ae"/><use transform="matrix(0.06172839506172839,0,0,0.06172839506172839,51.79012345679012,0)" xlink:href="#X"/><use transform="matrix(0.06172839506172839,0,0,0.06172839506172839,64.1358024691358,0)" xlink:href="#P"/><use transform="matrix(0.06172839506172839,0,0,0.06172839506172839,76.48148148148148,0)" xlink:href="#M"/><use transform="matrix(0.06172839506172839,0,0,0.06172839506172839,83.82716049382717,0)" xlink:href="#M"/><use transform="matrix(0.06172839506172839,0,0,0.06172839506172839,91.17283950617285,0)" xlink:href="#Y"/></g><g id="B"><use transform="matrix(0.06172839506172839,0,0,0.06172839506172839,0,0)" xlink:href="#ae"/><use transform="matrix(0.06172839506172839,0,0,0.06172839506172839,12.345679012345679,0)" xlink:href="#ac"/></g><path fill="#3a414a" d="M127-220V0H93v-220H8v-28h204v28h-85" id="aw"/><path fill="#3a414a" d="M101-234c-31-9-42 10-38 44h38v23H63V0H32v-167H5v-23h27c-7-52 17-82 69-68v24" id="ax"/><g id="C"><use transform="matrix(0.06172839506172839,0,0,0.06172839506172839,0,0)" xlink:href="#aw"/><use transform="matrix(0.06172839506172839,0,0,0.06172839506172839,12.716049382716047,0)" xlink:href="#M"/><use transform="matrix(0.06172839506172839,0,0,0.06172839506172839,20.061728395061728,0)" xlink:href="#L"/><use transform="matrix(0.06172839506172839,0,0,0.06172839506172839,32.407407407407405,0)" xlink:href="#O"/><use transform="matrix(0.06172839506172839,0,0,0.06172839506172839,44.75308641975308,0)" xlink:href="#ad"/><use transform="matrix(0.06172839506172839,0,0,0.06172839506172839,55.86419753086419,0)" xlink:href="#ax"/><use transform="matrix(0.06172839506172839,0,0,0.06172839506172839,62.03703703703703,0)" xlink:href="#J"/><use transform="matrix(0.06172839506172839,0,0,0.06172839506172839,74.38271604938271,0)" xlink:href="#M"/><use transform="matrix(0.06172839506172839,0,0,0.06172839506172839,81.72839506172839,0)" xlink:href="#ab"/><use transform="matrix(0.06172839506172839,0,0,0.06172839506172839,100.18518518518518,0)" xlink:href="#P"/><use transform="matrix(0.06172839506172839,0,0,0.06172839506172839,112.53086419753086,0)" xlink:href="#M"/></g><g id="D"><use transform="matrix(0.030864197530864182,0,0,0.030864197530864182,0,0)" xlink:href="#U"/><use transform="matrix(0.030864197530864182,0,0,0.030864197530864182,6.172839506172837,0)" xlink:href="#V"/><use transform="matrix(0.030864197530864182,0,0,0.030864197530864182,12.345679012345673,0)" xlink:href="#W"/></g><g id="E"><use transform="matrix(0.030864197530864182,0,0,0.030864197530864182,0,0)" xlink:href="#T"/><use transform="matrix(0.030864197530864182,0,0,0.030864197530864182,3.0864197530864184,0)" xlink:href="#J"/></g><path fill="#3a414a" d="M54-142c48-35 137-8 131 61C196 18 31 33 14-55l32-4c7 23 22 37 52 37 35-1 51-22 54-58 4-55-73-65-99-34H22l8-134h141v27H59" id="ay"/><g id="F"><use transform="matrix(0.030864197530864182,0,0,0.030864197530864182,0,0)" xlink:href="#ay"/><use transform="matrix(0.030864197530864182,0,0,0.030864197530864182,6.172839506172837,0)" xlink:href="#W"/></g><path fill="#3a414a" d="M232-93c-1 65-40 97-104 97C67 4 28-28 28-90v-158h33c8 89-33 224 67 224 102 0 64-133 71-224h33v155" id="az"/><g id="G"><use transform="matrix(0.06172839506172839,0,0,0.06172839506172839,0,0)" xlink:href="#az"/><use transform="matrix(0.06172839506172839,0,0,0.06172839506172839,15.987654320987653,0)" xlink:href="#O"/><use transform="matrix(0.06172839506172839,0,0,0.06172839506172839,28.333333333333332,0)" xlink:href="#ar"/><use transform="matrix(0.06172839506172839,0,0,0.06172839506172839,40.67901234567901,0)" xlink:href="#P"/><use transform="matrix(0.06172839506172839,0,0,0.06172839506172839,53.02469135802469,0)" xlink:href="#M"/><use transform="matrix(0.06172839506172839,0,0,0.06172839506172839,60.37037037037037,0)" xlink:href="#ao"/><use transform="matrix(0.06172839506172839,0,0,0.06172839506172839,76.35802469135803,0)" xlink:href="#L"/><use transform="matrix(0.06172839506172839,0,0,0.06172839506172839,88.70370370370371,0)" xlink:href="#T"/><use transform="matrix(0.06172839506172839,0,0,0.06172839506172839,94.87654320987654,0)" xlink:href="#P"/><use transform="matrix(0.06172839506172839,0,0,0.06172839506172839,107.22222222222223,0)" xlink:href="#M"/></g><path fill="#3a414a" d="M30 0v-248h187v28H63v79h144v27H63v87h162V0H30" id="aA"/><g id="H"><use transform="matrix(0.06172839506172839,0,0,0.06172839506172839,0,0)" xlink:href="#aA"/><use transform="matrix(0.06172839506172839,0,0,0.06172839506172839,14.814814814814813,0)" xlink:href="#O"/><use transform="matrix(0.06172839506172839,0,0,0.06172839506172839,27.160493827160494,0)" xlink:href="#Q"/><use transform="matrix(0.06172839506172839,0,0,0.06172839506172839,38.27160493827161,0)" xlink:href="#K"/><use transform="matrix(0.06172839506172839,0,0,0.06172839506172839,43.14814814814815,0)" xlink:href="#J"/><use transform="matrix(0.06172839506172839,0,0,0.06172839506172839,55.49382716049383,0)" xlink:href="#ad"/><use transform="matrix(0.06172839506172839,0,0,0.06172839506172839,66.60493827160494,0)" xlink:href="#ap"/><use transform="matrix(0.06172839506172839,0,0,0.06172839506172839,78.95061728395062,0)" xlink:href="#M"/><use transform="matrix(0.06172839506172839,0,0,0.06172839506172839,86.2962962962963,0)" xlink:href="#P"/></g></defs></g></svg>